<svg xmlns="http://www.w3.org/2000/svg" viewBox="0 0 110.46 53.49"><defs><style>.cls-1{isolation:isolate;}.cls-2,.cls-3{fill:#aec9cc;}.cls-3,.cls-6{mix-blend-mode:multiply;opacity:0.5;}.cls-4{fill:none;stroke:#fff;stroke-linecap:round;stroke-linejoin:round;stroke-width:1.5px;mix-blend-mode:overlay;opacity:0.6;}.cls-5,.cls-6{fill:#d8e8ea;}</style></defs><g class="cls-1"><g id="Layer_2" data-name="Layer 2"><g id="OBJECTS"><path class="cls-2" d="M109,50.25H16.22s-7.91-23.5,16.16-23.5c0,0-5-10,1-18.6,8-11.36,23.76-5.88,28.78,3.07,0,0,2-11.49,14-11.22S91.05,13.46,89.56,21.91c0,0,7-4,12.18.25s4.81,11.93,1.54,15.17C103.28,37.33,114.42,38.07,109,50.25Z"/><path class="cls-3" d="M102.34,42.1c-4.22-1.3-11.41,4-11.41,4-2.38-19.39-19.82-14-19.82-14C69.37,16.57,54.47,20.88,54.47,20.88,53.06,7.25,40.75,2.5,40.75,2.5a14.57,14.57,0,0,0-7.36,5.65c-6,8.61-1,18.6-1,18.6-24.07,0-16.16,23.5-16.16,23.5h90.55C108.56,46.75,106.56,43.4,102.34,42.1Z"/><path class="cls-4" d="M64.58,12.66s2.34-9,10.38-9.29S90,13.59,86.73,27.09A9.94,9.94,0,0,1,99.2,24.37c7.72,3.74,1.11,14,1.11,14"/><path class="cls-5" d="M3.54,53.49H86.08a12.71,12.71,0,0,0-1-15.17c-6.21-8-15.16-4.47-17.65-2.24,0,0,3.23-4-.74-9.69S55,21.66,53,24.9A26.56,26.56,0,0,0,37.35,2C21.69-5.19,9.67,8.49,8.68,18.4S14,35.59,14,35.59,6.27,31.86,2.05,38.07,1.05,51.74,3.54,53.49Z"/><path class="cls-6" d="M8.57,53.49S4.49,47.56,6.79,42.72A7.61,7.61,0,0,1,19,40.42s-7.53-10.36-2.13-21.56S49.32,4.41,50.29,35.41c0,0,.51-5.26,6.51-5.42s7.11,8.88,4.82,13.6c0,0,10.81-6.74,17.16-2.89,4.94,3,3.72,10.57,2.32,12.79Z"/><path class="cls-4" d="M3.84,50.25s-2.77-4.75,0-9.44,9.61-4.62,11.71-3.59c0,0-7.52-12.3-1.59-23.62S45.74-2.78,51.64,28.65A8.36,8.36,0,0,1,59.89,26c5.24,1.2,6.41,8.2,4.79,13.74,0,0,7.14-5.86,13.56-2.54,5.63,2.9,8.2,6.74,6.64,13.6"/></g></g></g></svg>