<svg xmlns="http://www.w3.org/2000/svg" viewBox="0 0 110.46 91.75"><defs><style>.cls-1{isolation:isolate;}.cls-2,.cls-3{fill:#d8e8ea;}.cls-3,.cls-5{mix-blend-mode:multiply;opacity:0.5;}.cls-4,.cls-5{fill:#aec9cc;}.cls-6{fill:none;stroke:#fff;stroke-linecap:round;stroke-linejoin:round;stroke-width:1.5px;mix-blend-mode:overlay;opacity:0.6;}</style></defs><g class="cls-1"><g id="Layer_2" data-name="Layer 2"><g id="OBJECTS"><path class="cls-2" d="M16.82,70.61a4.13,4.13,0,0,1-8.25,0c0-2.28,4.13-9,4.13-9S16.82,68.33,16.82,70.61Z"/><path class="cls-3" d="M15.55,67.86a2.86,2.86,0,0,1-5.71,0c0-1.58,2.86-6.22,2.86-6.22S15.55,66.28,15.55,67.86Z"/><path class="cls-2" d="M31.91,69.85a2.83,2.83,0,0,1-5.66,0c0-1.56,2.83-6.15,2.83-6.15S31.91,68.29,31.91,69.85Z"/><path class="cls-3" d="M31,68a2,2,0,0,1-3.92,0c0-1.08,2-4.26,2-4.26S31,66.88,31,68Z"/><path class="cls-2" d="M65.55,69.85a2.83,2.83,0,0,1-5.66,0c0-1.56,2.83-6.15,2.83-6.15S65.55,68.29,65.55,69.85Z"/><path class="cls-3" d="M64.68,68a2,2,0,0,1-3.92,0c0-1.08,2-4.26,2-4.26S64.68,66.88,64.68,68Z"/><path class="cls-2" d="M99.18,69.85a2.83,2.83,0,0,1-5.66,0c0-1.56,2.83-6.15,2.83-6.15S99.18,68.29,99.18,69.85Z"/><path class="cls-3" d="M98.31,68a2,2,0,0,1-3.92,0c0-1.08,2-4.26,2-4.26S98.31,66.88,98.31,68Z"/><path class="cls-2" d="M49.59,70.61a4.12,4.12,0,0,1-8.24,0c0-2.28,4.12-9,4.12-9S49.59,68.33,49.59,70.61Z"/><path class="cls-3" d="M48.33,67.86a2.86,2.86,0,0,1-5.72,0c0-1.58,2.86-6.22,2.86-6.22S48.33,66.28,48.33,67.86Z"/><path class="cls-2" d="M82.37,70.61a4.13,4.13,0,0,1-8.25,0c0-2.28,4.12-9,4.12-9S82.37,68.33,82.37,70.61Z"/><path class="cls-3" d="M81.1,67.86a2.86,2.86,0,0,1-5.71,0c0-1.58,2.85-6.22,2.85-6.22S81.1,66.28,81.1,67.86Z"/><path class="cls-2" d="M33.39,87.63a4.12,4.12,0,0,1-8.24,0c0-2.28,4.12-9,4.12-9S33.39,85.35,33.39,87.63Z"/><path class="cls-3" d="M32.13,84.88a2.86,2.86,0,0,1-5.72,0c0-1.58,2.86-6.22,2.86-6.22S32.13,83.3,32.13,84.88Z"/><path class="cls-2" d="M48.49,86.87a2.83,2.83,0,0,1-5.66,0c0-1.56,2.83-6.15,2.83-6.15S48.49,85.31,48.49,86.87Z"/><path class="cls-3" d="M47.62,85a2,2,0,1,1-3.92,0c0-1.08,2-4.26,2-4.26S47.62,83.9,47.62,85Z"/><path class="cls-2" d="M82.12,86.87a2.83,2.83,0,1,1-5.66,0c0-1.56,2.83-6.15,2.83-6.15S82.12,85.31,82.12,86.87Z"/><path class="cls-3" d="M81.25,85a2,2,0,1,1-3.92,0c0-1.08,2-4.26,2-4.26S81.25,83.9,81.25,85Z"/><path class="cls-2" d="M66.17,87.63a4.13,4.13,0,0,1-8.25,0c0-2.28,4.12-9,4.12-9S66.17,85.35,66.17,87.63Z"/><path class="cls-3" d="M64.9,84.88a2.86,2.86,0,0,1-5.71,0c0-1.58,2.85-6.22,2.85-6.22S64.9,83.3,64.9,84.88Z"/><path class="cls-4" d="M109,50.25H16.22s-7.91-23.5,16.16-23.5c0,0-5-10,1-18.6,8-11.36,23.76-5.88,28.78,3.07,0,0,2-11.49,14-11.22S91.05,13.46,89.56,21.91c0,0,7-4,12.18.25s4.81,11.93,1.54,15.17C103.28,37.33,114.42,38.07,109,50.25Z"/><path class="cls-5" d="M102.34,42.1c-4.22-1.3-11.41,4-11.41,4-2.38-19.39-19.82-14-19.82-14C69.37,16.57,54.47,20.88,54.47,20.88,53.06,7.25,40.75,2.5,40.75,2.5a14.57,14.57,0,0,0-7.36,5.65c-6,8.61-1,18.6-1,18.6-24.07,0-16.16,23.5-16.16,23.5h90.55C108.56,46.75,106.56,43.4,102.34,42.1Z"/><path class="cls-6" d="M64.58,12.66s2.34-9,10.38-9.29S90,13.59,86.73,27.09A9.94,9.94,0,0,1,99.2,24.37c7.72,3.74,1.11,14,1.11,14"/><path class="cls-2" d="M3.54,53.49H86.08a12.71,12.71,0,0,0-1-15.17c-6.21-8-15.16-4.47-17.65-2.24,0,0,3.23-4-.74-9.69S55,21.66,53,24.9A26.56,26.56,0,0,0,37.35,2C21.69-5.19,9.67,8.49,8.68,18.4S14,35.59,14,35.59,6.27,31.86,2.05,38.07,1.05,51.74,3.54,53.49Z"/><path class="cls-3" d="M8.57,53.49S4.49,47.56,6.79,42.72A7.61,7.61,0,0,1,19,40.42s-7.53-10.36-2.13-21.56S49.32,4.41,50.29,35.41c0,0,.51-5.26,6.51-5.42s7.11,8.88,4.82,13.6c0,0,10.81-6.74,17.16-2.89,4.94,3,3.72,10.57,2.32,12.79Z"/><path class="cls-6" d="M3.84,50.25s-2.77-4.75,0-9.44,9.61-4.62,11.71-3.59c0,0-7.52-12.3-1.59-23.62S45.74-2.78,51.64,28.65A8.36,8.36,0,0,1,59.89,26c5.24,1.2,6.41,8.2,4.79,13.74,0,0,7.14-5.86,13.56-2.54,5.63,2.9,8.2,6.74,6.64,13.6"/></g></g></g></svg>