<svg xmlns="http://www.w3.org/2000/svg" viewBox="0 0 120.88 141.32"><defs><style>.cls-1{isolation:isolate;}.cls-2,.cls-3{fill:#ebab44;}.cls-3,.cls-7,.cls-9{mix-blend-mode:multiply;}.cls-3{opacity:0.3;}.cls-4,.cls-7{fill:#f6dc44;}.cls-10,.cls-5{mix-blend-mode:overlay;opacity:0.6;}.cls-6{fill:#fff;}.cls-7,.cls-9{opacity:0.5;}.cls-8,.cls-9{fill:#aec9cc;}.cls-10{fill:none;stroke:#fff;stroke-linecap:round;stroke-linejoin:round;stroke-width:1.83px;}</style></defs><g class="cls-1"><g id="Layer_2" data-name="Layer 2"><g id="OBJECTS"><path class="cls-2" d="M118.92,44.87c0,2.87-3.85,5.33-4.39,8.05s2,6.54,1,9.12-5.58,3.42-7.14,5.75-.6,6.81-2.59,8.8-6.45,1-8.8,2.59-3.13,6.06-5.75,7.15-6.32-1.54-9.12-1-5.18,4.39-8.06,4.39-5.33-3.85-8-4.39-6.55,2-9.12,1-3.42-5.59-5.75-7.15-6.81-.6-8.8-2.59-1-6.45-2.59-8.8S33.68,64.66,32.59,62s1.54-6.32,1-9.12-4.38-5.18-4.38-8.05,3.85-5.34,4.38-8.06-2.05-6.54-1-9.12,5.59-3.42,7.15-5.75.6-6.81,2.59-8.8,6.45-1,8.8-2.59,3.13-6.06,5.75-7.15,6.32,1.54,9.12,1S71.18,0,74.05,0s5.34,3.85,8.06,4.39,6.54-2,9.12-1S94.65,9,97,10.55s6.81.6,8.8,2.59,1,6.45,2.59,8.8,6.06,3.13,7.14,5.75-1.53,6.32-1,9.12S118.92,42,118.92,44.87Z"/><path class="cls-3" d="M113.22,44.87c0,2.51-3.36,4.65-3.83,7s1.79,5.71.86,8-4.88,3-6.24,5-.52,6-2.26,7.68-5.63.89-7.68,2.27-2.73,5.29-5,6.23-5.52-1.34-8-.85S76.56,84,74.05,84s-4.66-3.36-7-3.83-5.71,1.79-8,.85-3-4.87-5-6.23-5.95-.53-7.69-2.27-.89-5.63-2.26-7.68-5.29-2.73-6.24-5,1.34-5.52.86-8-3.83-4.52-3.83-7,3.36-4.66,3.83-7-1.79-5.71-.86-8,4.88-3,6.24-5,.53-6,2.26-7.68S52,16.28,54,14.9s2.73-5.28,5-6.23,5.51,1.34,8,.85,4.52-3.83,7-3.83,4.66,3.36,7,3.83,5.72-1.79,8-.85,3,4.87,5,6.24,5.94.52,7.68,2.26.89,5.63,2.26,7.68,5.29,2.73,6.24,5-1.34,5.52-.86,8S113.22,42.35,113.22,44.87Z"/><circle class="cls-4" cx="74.05" cy="44.87" r="32.3" transform="translate(15.05 108.23) rotate(-78.25)"/><g class="cls-5"><path class="cls-6" d="M46.07,44.87a24.83,24.83,0,0,1,1.5-11,26.63,26.63,0,0,1,6.06-9.45,26.34,26.34,0,0,1,9.44-6.1,24,24,0,0,1,11-1.46.44.44,0,0,1,.4.49.46.46,0,0,1-.4.41A33,33,0,0,0,64,20.52a29.37,29.37,0,0,0-8.43,5.83,28.92,28.92,0,0,0-5.87,8.42A31.92,31.92,0,0,0,47,44.87a.44.44,0,0,1-.49.4A.45.45,0,0,1,46.07,44.87Z"/></g><path class="cls-7" d="M92.71,18.5A29.76,29.76,0,0,1,42.13,49.86,32.31,32.31,0,1,0,92.71,18.5Z"/><path class="cls-8" d="M20.5,115.55a5,5,0,0,1-10,0c0-2.77,5-10.92,5-10.92S20.5,112.78,20.5,115.55Z"/><path class="cls-9" d="M19,112.2a3.49,3.49,0,0,1-7,0c0-1.93,3.48-7.57,3.48-7.57S19,110.27,19,112.2Z"/><path class="cls-8" d="M38.89,114.63a3.45,3.45,0,0,1-6.89,0c0-1.91,3.45-7.5,3.45-7.5S38.89,112.72,38.89,114.63Z"/><path class="cls-9" d="M37.84,112.32a2.39,2.39,0,0,1-4.78,0c0-1.32,2.39-5.19,2.39-5.19S37.84,111,37.84,112.32Z"/><path class="cls-8" d="M79.89,114.63a3.45,3.45,0,0,1-6.9,0c0-1.91,3.45-7.5,3.45-7.5S79.89,112.72,79.89,114.63Z"/><path class="cls-9" d="M78.83,112.32a2.39,2.39,0,0,1-4.78,0c0-1.32,2.39-5.19,2.39-5.19S78.83,111,78.83,112.32Z"/><path class="cls-8" d="M120.88,114.63a3.45,3.45,0,0,1-6.89,0c0-1.91,3.45-7.5,3.45-7.5S120.88,112.72,120.88,114.63Z"/><path class="cls-9" d="M119.82,112.32a2.39,2.39,0,1,1-4.77,0c0-1.32,2.39-5.19,2.39-5.19S119.82,111,119.82,112.32Z"/><path class="cls-8" d="M60.44,115.55a5,5,0,1,1-10,0c0-2.77,5-10.92,5-10.92S60.44,112.78,60.44,115.55Z"/><path class="cls-9" d="M58.9,112.2a3.48,3.48,0,1,1-7,0c0-1.93,3.48-7.57,3.48-7.57S58.9,110.27,58.9,112.2Z"/><path class="cls-8" d="M100.39,115.55a5,5,0,0,1-10,0c0-2.77,5-10.92,5-10.92S100.39,112.78,100.39,115.55Z"/><path class="cls-9" d="M98.85,112.2a3.49,3.49,0,0,1-7,0c0-1.93,3.48-7.57,3.48-7.57S98.85,110.27,98.85,112.2Z"/><path class="cls-8" d="M40.7,136.3a5,5,0,0,1-10.05,0c0-2.78,5-10.93,5-10.93S40.7,133.52,40.7,136.3Z"/><path class="cls-9" d="M39.16,132.94a3.49,3.49,0,0,1-7,0c0-1.92,3.49-7.57,3.49-7.57S39.16,131,39.16,132.94Z"/><path class="cls-8" d="M59.1,135.37a3.45,3.45,0,0,1-6.9,0c0-1.9,3.45-7.5,3.45-7.5S59.1,133.47,59.1,135.37Z"/><path class="cls-9" d="M58,133.07a2.39,2.39,0,0,1-4.78,0c0-1.32,2.39-5.2,2.39-5.2S58,131.75,58,133.07Z"/><path class="cls-8" d="M100.09,135.37a3.45,3.45,0,1,1-6.9,0c0-1.9,3.45-7.5,3.45-7.5S100.09,133.47,100.09,135.37Z"/><path class="cls-9" d="M99,133.07a2.39,2.39,0,0,1-4.78,0c0-1.32,2.39-5.2,2.39-5.2S99,131.75,99,133.07Z"/><path class="cls-8" d="M80.64,136.3a5,5,0,1,1-10,0c0-2.78,5-10.93,5-10.93S80.64,133.52,80.64,136.3Z"/><path class="cls-9" d="M79.1,132.94a3.48,3.48,0,1,1-7,0c0-1.92,3.48-7.57,3.48-7.57S79.1,131,79.1,132.94Z"/><path class="cls-8" d="M4.31,94.68h100.6s6.37-8.79-1.21-18.48-18.48-5.46-21.51-2.73c0,0,3.94-4.85-.91-11.82S67,55.9,64.61,59.84A32.37,32.37,0,0,0,45.52,32c-19.09-8.79-33.73,7.88-34.94,20s6.46,21,6.46,21-9.39-4.55-14.54,3S1.28,92.56,4.31,94.68Z"/><path class="cls-9" d="M10.45,94.68s-5-7.22-2.17-13.12c2.72-5.74,9.87-7.15,14.81-2.8,0,0-9.17-12.63-2.59-26.28S60.11,34.87,61.3,72.65c0,0,.61-6.41,7.93-6.6S77.9,76.86,75.1,82.62c0,0,13.17-8.22,20.91-3.52,6,3.66,4.54,12.88,2.84,15.58Z"/><path class="cls-10" d="M4.68,90.74S1.31,85,4.68,79.23,16.4,73.6,19,74.85c0,0-9.17-15-1.95-28.78s38.74-20,45.93,18.34a10.19,10.19,0,0,1,10-3.23c6.39,1.47,7.82,10,5.84,16.75,0,0,8.71-7.14,16.53-3.1,6.86,3.53,10,8.22,8.09,16.58"/></g></g></g></svg>