<svg xmlns="http://www.w3.org/2000/svg" viewBox="0 0 106.61 98.5"><defs><style>.cls-1{isolation:isolate;}.cls-2{fill:none;stroke:#fff;stroke-linecap:round;stroke-linejoin:round;stroke-width:1.37px;}.cls-3{fill:#fff;}.cls-4{fill:#d8e8ea;mix-blend-mode:multiply;opacity:0.5;}</style></defs><g class="cls-1"><g id="Layer_2" data-name="Layer 2"><g id="OBJECTS"><line class="cls-2" x1="8.58" y1="67.94" x2="8.58" y2="77.47"/><line class="cls-2" x1="13.35" y1="72.7" x2="3.81" y2="72.7"/><line class="cls-2" x1="11.95" y1="69.33" x2="5.21" y2="76.07"/><line class="cls-2" x1="11.95" y1="76.07" x2="5.21" y2="69.33"/><line class="cls-2" x1="48.54" y1="58.41" x2="48.54" y2="67.94"/><line class="cls-2" x1="53.31" y1="63.17" x2="43.77" y2="63.17"/><line class="cls-2" x1="51.91" y1="59.8" x2="45.17" y2="66.54"/><line class="cls-2" x1="51.91" y1="66.54" x2="45.17" y2="59.8"/><line class="cls-2" x1="75.28" y1="79.21" x2="75.28" y2="88.74"/><line class="cls-2" x1="80.05" y1="83.98" x2="70.52" y2="83.98"/><line class="cls-2" x1="78.65" y1="80.61" x2="71.91" y2="87.35"/><line class="cls-2" x1="78.65" y1="87.35" x2="71.91" y2="80.61"/><line class="cls-2" x1="31.6" y1="85.73" x2="31.6" y2="95.26"/><line class="cls-2" x1="36.37" y1="90.49" x2="26.84" y2="90.49"/><line class="cls-2" x1="34.97" y1="87.12" x2="28.23" y2="93.86"/><line class="cls-2" x1="34.97" y1="93.86" x2="28.23" y2="87.12"/><line class="cls-2" x1="96.12" y1="61.07" x2="96.12" y2="70.6"/><line class="cls-2" x1="100.88" y1="65.84" x2="91.35" y2="65.84"/><line class="cls-2" x1="99.49" y1="62.47" x2="92.75" y2="69.21"/><line class="cls-2" x1="99.49" y1="69.21" x2="92.75" y2="62.47"/><path class="cls-3" d="M26.53,63.17A6.16,6.16,0,1,1,20.37,57,6.16,6.16,0,0,1,26.53,63.17Z"/><path class="cls-4" d="M24.19,58.34a5.78,5.78,0,0,1,.36,2,5.6,5.6,0,0,1-10.34,3,6.16,6.16,0,1,0,10-4.94Z"/><path class="cls-3" d="M86.21,66.54a6.16,6.16,0,1,1-6.16-6.16A6.16,6.16,0,0,1,86.21,66.54Z"/><path class="cls-4" d="M83.87,61.71a5.77,5.77,0,0,1,.35,2,5.59,5.59,0,0,1-10.33,3,6.16,6.16,0,1,0,10-4.94Z"/><circle class="cls-3" cx="18.62" cy="82.98" r="3.77"/><path class="cls-4" d="M21,80a3.42,3.42,0,0,1-3.21,4.63,3.4,3.4,0,0,1-2.89-1.6A3.77,3.77,0,1,0,21,80Z"/><path class="cls-3" d="M96.26,88.49a4.91,4.91,0,1,1-4.91-4.91A4.91,4.91,0,0,1,96.26,88.49Z"/><path class="cls-4" d="M94.39,84.64a4.24,4.24,0,0,1,.29,1.56,4.47,4.47,0,0,1-8.24,2.38,4.91,4.91,0,1,0,8-3.94Z"/><circle class="cls-3" cx="64.02" cy="60.78" r="2.56"/><path class="cls-4" d="M65.61,58.78a2.38,2.38,0,0,1,.14.81,2.32,2.32,0,0,1-4.28,1.24,2.56,2.56,0,1,0,4.14-2Z"/><circle class="cls-3" cx="60.45" cy="74.91" r="2.56"/><path class="cls-4" d="M62,72.91a2.2,2.2,0,0,1,.15.81A2.32,2.32,0,0,1,57.9,75a2.55,2.55,0,1,0,4.13-2Z"/><path class="cls-3" d="M42.38,75.47a3.77,3.77,0,1,1-3.77-3.78A3.77,3.77,0,0,1,42.38,75.47Z"/><path class="cls-4" d="M41,72.51a3.37,3.37,0,0,1,.22,1.2,3.42,3.42,0,0,1-6.32,1.82,3.77,3.77,0,1,0,6.1-3Z"/><path class="cls-3" d="M61.18,93.86a4.64,4.64,0,1,1-4.64-4.63A4.64,4.64,0,0,1,61.18,93.86Z"/><path class="cls-4" d="M59.41,90.23a4,4,0,0,1,.27,1.47A4.21,4.21,0,0,1,51.91,94a4.64,4.64,0,1,0,7.5-3.72Z"/><path class="cls-3" d="M105.37,50.37H4.55s-6-4.54-4.23-11.58,8.82-10.22,12.54-8.41c0,0-8.49-8.63,0-21.8s29.4-10.91,35.53,5c0,0,5.91-6.81,12.72-3.18s5.46,11.82,5.46,11.82A13.51,13.51,0,0,1,80,17c8.86,1.59,13,10.68,10.22,19.76,0,0,5.23-3.63,10.68-.68S108.05,46.06,105.37,50.37Z"/><path class="cls-4" d="M8.52,50.37a9.17,9.17,0,0,1,.06-10.78c4-5.75,10-5.75,13.81-3,0,0-10.5-9.15-3.76-18.95S46,9.15,48.54,29a7.83,7.83,0,0,1,6.63-7c6.39-1.28,9.8,5.87,7.67,10.49,0,0,4.47-9.64,14-6.23S86.39,40.44,85.58,43c0,0,15.58-5.48,16.43,7.37Z"/></g></g></g></svg>