<svg xmlns="http://www.w3.org/2000/svg" viewBox="0 0 99.4 99.4"><defs><style>.cls-1{isolation:isolate;}.cls-2,.cls-3{fill:#ebab44;}.cls-3,.cls-7{mix-blend-mode:multiply;}.cls-3{opacity:0.3;}.cls-4,.cls-7{fill:#f6dc44;}.cls-5{mix-blend-mode:overlay;opacity:0.6;}.cls-6{fill:#fff;}.cls-7{opacity:0.5;}</style></defs><g class="cls-1"><g id="Layer_2" data-name="Layer 2"><g id="OBJECTS"><path class="cls-2" d="M99.4,49.7c0,3.19-4.26,5.91-4.86,8.92s2.27,7.25,1.09,10.11-6.19,3.79-7.92,6.37-.66,7.54-2.87,9.75S77.7,86,75.1,87.71s-3.47,6.72-6.37,7.92-7-1.7-10.11-1.09S52.89,99.4,49.7,99.4s-5.91-4.26-8.92-4.86-7.25,2.27-10.1,1.09-3.79-6.19-6.38-7.92-7.54-.66-9.74-2.87-1.13-7.14-2.87-9.74S5,71.63,3.77,68.73s1.7-7,1.09-10.11S0,52.89,0,49.7s4.26-5.91,4.86-8.92-2.27-7.25-1.09-10.1S10,26.89,11.69,24.3s.66-7.54,2.87-9.74,7.14-1.13,9.74-2.87S27.77,5,30.68,3.77s7,1.7,10.1,1.09S46.52,0,49.7,0s5.91,4.26,8.92,4.86,7.25-2.27,10.11-1.09S72.52,10,75.1,11.69s7.54.66,9.75,2.87S86,21.7,87.71,24.3s6.72,3.47,7.92,6.38-1.7,7-1.09,10.1S99.4,46.52,99.4,49.7Z"/><path class="cls-3" d="M93.09,49.7c0,2.78-3.72,5.16-4.24,7.79s2,6.33,1,8.82-5.4,3.31-6.91,5.57-.58,6.58-2.51,8.51-6.23,1-8.51,2.5-3,5.86-5.56,6.91-6.11-1.48-8.82-1-5,4.24-7.79,4.24-5.16-3.72-7.79-4.24-6.33,2-8.82,1-3.31-5.4-5.56-6.91-6.59-.58-8.51-2.51-1-6.23-2.51-8.51-5.86-3-6.91-5.56,1.49-6.11,1-8.82-4.24-5-4.24-7.79,3.72-5.16,4.24-7.79-2-6.33-1-8.82,5.4-3.31,6.91-5.56S17.09,20.94,19,19s6.24-1,8.51-2.51,3-5.86,5.56-6.91,6.11,1.49,8.82,1,5-4.24,7.79-4.24,5.16,3.72,7.79,4.24,6.33-2,8.82-1,3.31,5.4,5.57,6.91,6.58.58,8.51,2.51,1,6.24,2.5,8.51,5.86,3,6.91,5.56-1.48,6.11-1,8.82S93.09,46.92,93.09,49.7Z"/><circle class="cls-4" cx="49.7" cy="49.7" r="35.78" transform="translate(-15.89 24.43) rotate(-23.93)"/><g class="cls-5"><path class="cls-6" d="M18.71,49.7a27.21,27.21,0,0,1,1.66-12.15A29.38,29.38,0,0,1,37.53,20.32,26.87,26.87,0,0,1,49.7,18.71a.49.49,0,0,1,.45.55.5.5,0,0,1-.45.44,36.6,36.6,0,0,0-11.17,3,32.86,32.86,0,0,0-9.34,6.46,32.23,32.23,0,0,0-6.5,9.32,35.3,35.3,0,0,0-3,11.19.5.5,0,0,1-1,0Z"/></g><path class="cls-7" d="M70.37,20.5a33,33,0,0,1-56,34.73,35.79,35.79,0,1,0,56-34.73Z"/></g></g></g></svg>