<svg xmlns="http://www.w3.org/2000/svg" viewBox="0 0 106.78 86.79"><defs><style>.cls-1{isolation:isolate;}.cls-2,.cls-3{fill:#ebab44;}.cls-3,.cls-7,.cls-9{mix-blend-mode:multiply;}.cls-3{opacity:0.3;}.cls-4,.cls-7{fill:#f6dc44;}.cls-10,.cls-5{mix-blend-mode:overlay;opacity:0.6;}.cls-6{fill:#fff;}.cls-7,.cls-9{opacity:0.5;}.cls-8,.cls-9{fill:#d8e8ea;}.cls-10{fill:none;stroke:#fff;stroke-linecap:round;stroke-linejoin:round;stroke-width:1.25px;}</style></defs><g class="cls-1"><g id="Layer_2" data-name="Layer 2"><g id="OBJECTS"><path class="cls-2" d="M75,37.52c0,2.4-3.21,4.46-3.66,6.73s1.71,5.47.82,7.63-4.67,2.86-6,4.81-.5,5.69-2.16,7.36-5.4.85-7.36,2.16-2.62,5.07-4.81,6-5.29-1.29-7.63-.82S39.92,75,37.52,75s-4.47-3.21-6.74-3.66-5.47,1.71-7.62.82-2.87-4.67-4.81-6-5.7-.5-7.36-2.16-.85-5.4-2.17-7.36-5.06-2.62-6-4.81,1.28-5.29.82-7.63S0,39.92,0,37.52s3.22-4.47,3.67-6.74S2,25.31,2.85,23.16s4.67-2.87,6-4.81S9.32,12.65,11,11s5.39-.85,7.36-2.17,2.61-5.06,4.81-6,5.28,1.28,7.62.82S35.11,0,37.52,0,42,3.22,44.25,3.67,49.72,2,51.88,2.85s2.86,4.67,4.81,6,5.69.5,7.36,2.17.85,5.39,2.16,7.36,5.07,2.61,6,4.81-1.29,5.28-.82,7.62S75,35.11,75,37.52Z"/><path class="cls-3" d="M70.27,37.52c0,2.1-2.81,3.89-3.2,5.88s1.5,4.77.72,6.66-4.08,2.49-5.22,4.2-.44,5-1.89,6.42-4.71.74-6.43,1.89S52,67,50.06,67.79s-4.62-1.12-6.66-.72-3.78,3.2-5.88,3.2-3.9-2.81-5.88-3.2-4.78,1.5-6.66.72-2.5-4.08-4.2-5.22-5-.44-6.43-1.89-.74-4.71-1.89-6.43S8,52,7.25,50.06,8.37,45.44,8,43.4s-3.2-3.78-3.2-5.88,2.81-3.9,3.2-5.88S6.47,26.86,7.25,25s4.07-2.5,5.21-4.2.44-5,1.9-6.43,4.7-.74,6.42-1.89S23.06,8,25,7.25s4.61,1.12,6.66.71,3.78-3.2,5.88-3.2S41.41,7.57,43.4,8s4.77-1.49,6.66-.71,2.49,4.07,4.2,5.21,5,.44,6.42,1.9.74,4.7,1.89,6.42S67,23.06,67.79,25s-1.12,4.61-.72,6.66S70.27,35.42,70.27,37.52Z"/><circle class="cls-4" cx="37.52" cy="37.52" r="27.01"/><g class="cls-5"><path class="cls-6" d="M14.12,37.52a20.92,20.92,0,0,1,1.25-9.18,22.44,22.44,0,0,1,5.07-7.9,22.07,22.07,0,0,1,7.89-5.1,20.39,20.39,0,0,1,9.19-1.22.38.38,0,0,1,0,.75,27.62,27.62,0,0,0-8.44,2.29A24.4,24.4,0,0,0,22,22a25,25,0,0,0-7.17,15.48.38.38,0,0,1-.41.34A.39.39,0,0,1,14.12,37.52Z"/></g><path class="cls-7" d="M53.12,15.47A24.88,24.88,0,0,1,10.83,41.69,27,27,0,1,0,53.12,15.47Z"/><path class="cls-8" d="M106.72,86.79H12.8S3.25,75.73,11,65.6A14.31,14.31,0,0,1,29.12,61s-7-16.84,9.6-26c17.42-9.6,32.94,1.54,33.51,15.57,0,0,9.16-5.85,16.56,1.94s5.46,16.76,2.34,21.44C91.13,73.93,107.89,69.64,106.72,86.79Z"/><path class="cls-9" d="M20.42,86.79s-8-5.71-4.52-13.62,14.8-8.36,19.21-3.73c0,0-7.12-15.14,2.37-22.59S66.29,39.16,67.65,60c0,0,6.55-7.57,13.78-3.61S89,72.72,82.9,78c0,0,19.66-4,21.13,8.76Z"/><path class="cls-10" d="M12.7,81.18S9.24,72.92,14,68s11.23-6.73,17.42-3.53c0,0-4.22-15.89,4.79-23.11s27.67-9.41,34,13.83c0,0,6.18-5.74,13.57-1.94s8.6,15.07,4,22.36c0,0,13.8-1.86,17,6.83"/></g></g></g></svg>