<svg xmlns="http://www.w3.org/2000/svg" viewBox="0 0 114.42 106.5"><defs><style>.cls-1{isolation:isolate;}.cls-2{fill:#ffb800;}.cls-3,.cls-4{fill:#f6dc44;}.cls-4,.cls-7,.cls-9{mix-blend-mode:multiply;}.cls-5{fill:none;stroke:#fff;stroke-linecap:round;stroke-linejoin:round;stroke-width:1.5px;mix-blend-mode:overlay;opacity:0.6;}.cls-6,.cls-7{fill:#aec9cc;}.cls-7{opacity:0.4;}.cls-8,.cls-9{fill:#d8e8ea;}.cls-9{opacity:0.5;}</style></defs><g class="cls-1"><g id="Layer_2" data-name="Layer 2"><g id="OBJECTS"><polygon class="cls-2" points="8.66 60.69 2.71 72.87 7.19 74.19 5.68 88.78 11.87 72.05 7.01 70.94 8.66 60.69"/><polygon class="cls-2" points="52.12 69.92 50.83 89.46 57.86 89.46 63.98 106.5 63.05 83.72 55.92 84.55 52.12 69.92"/><polygon class="cls-2" points="89.17 59.08 93.8 72.51 98.62 69.92 104.55 78.63 99.08 64.55 95.01 67.6 89.17 59.08"/><polygon class="cls-3" points="25.58 52.43 18.87 80.08 32.05 80.08 32.05 103.45 43.48 69.89 33.52 69.89 40.75 52.43 25.58 52.43"/><polygon class="cls-4" points="33.52 69.89 40.75 52.43 25.58 52.43 24.84 55.49 35.95 55.49 28.72 72.94 38.68 72.94 32.05 92.41 32.05 103.45 43.48 69.89 33.52 69.89"/><polyline class="cls-5" points="27.17 59.08 22.19 77.94 33.52 77.94"/><polygon class="cls-3" points="57.4 54.08 62.4 75.66 73.29 75.66 72.12 88.78 82.87 88.78 89.17 101.5 87.78 80.75 80.24 80.75 81.76 66.03 71.76 66.03 72.04 54.08 57.4 54.08"/><polygon class="cls-4" points="69.06 56.82 68.78 68.77 78.79 68.77 77.27 83.5 84.81 83.5 85.52 94.13 89.17 101.5 87.78 80.75 80.24 80.75 81.76 66.03 71.76 66.03 72.04 54.08 57.4 54.08 58.04 56.82 69.06 56.82"/><polyline class="cls-5" points="60.77 59.08 63.98 73.38 75.27 73.38 73.97 86.61 82.44 86.61"/><path class="cls-6" d="M39,41.79h74.08s3-5.25,0-9.46a7.09,7.09,0,0,0-7.7-2.72,7.9,7.9,0,0,0-1.25-9.94c-4.72-4.73-8.55-2.24-8.55-2.24S96.19,8.48,89,3,70.83-.72,65.11,10.22c0,0-4.73-5.55-10.57-3-8.07,3.51-5.54,11-5.54,11s-9.49-1-14.1,8A12.11,12.11,0,0,0,39,41.79Z"/><path class="cls-7" d="M91.35,38.56S92.22,30,82.44,24.4s-20.27,3.69-20.27,3.69a26.41,26.41,0,0,0-8.24-20.6A8.81,8.81,0,0,0,49,18.18s-9.49-1-14.1,8A12.11,12.11,0,0,0,39,41.79h71.21C106.73,31.93,91.35,38.56,91.35,38.56Z"/><path class="cls-5" d="M59.6,9.3a8.42,8.42,0,0,1,6,5.5s3.23-8.54,10.5-10.7,16.7,2.48,17,16.8c0,0,4.95-2.57,8.18.57s2.65,7.92,1.87,9.8c0,0,9.62-1.56,9.42,7.28"/><path class="cls-8" d="M3,56.21H95S98.68,48,88.23,46c0,0,4.48-7.21-3.23-15.91S64.37,28.73,60.39,34c0,0,.25-21-16.41-26.75C31.06,2.74,5.7,15.44,10.17,42c0,0-7-1.74-9.45,4S3,56.21,3,56.21Z"/><path class="cls-9" d="M7.29,56.21A5.91,5.91,0,0,1,5.54,49c1.93-4.54,8-3.84,10.32-1,0,0-4.11-13.8,6.33-24.11S57.53,17.69,57.4,45.6c0,0,4.59-8.79,14.2-10s13.46,7.34,10.14,14.5c0,0,9.46-3.5,9.61,6.12Z"/><path class="cls-5" d="M2.71,50.09s.56-8.74,10.17-5.42c0,0-4.36-16.42,8.39-27.61S58.15,10.18,58.85,39.4c0,0,8.12-10.65,17.47-9.41,9.64,1.28,11.54,9.27,8.74,18,0,0,8.56-1.28,8,6.09"/></g></g></g></svg>