<svg xmlns="http://www.w3.org/2000/svg" viewBox="0 0 99.09 66.53"><defs><style>.cls-1,.cls-2{fill:none;stroke-linecap:round;stroke-linejoin:round;stroke-width:1.5px;}.cls-1{stroke:#fff;}.cls-2{stroke:#d8e8ea;}.cls-3{fill:#d8e8ea;}.cls-4{fill:#fff;}</style></defs><g id="Layer_2" data-name="Layer 2"><g id="OBJECTS"><path class="cls-1" d="M69.55,56.44a2.68,2.68,0,0,1,0,3.78,3.34,3.34,0,0,1-4.72,0,4.17,4.17,0,0,1,0-5.9,5.2,5.2,0,0,1,7.37,0,6.5,6.5,0,0,1,0,9.21c-3.18,3.18-8,2.81-11.52,0-3-2.36-4.42-6.3-5.92-12.77-2.1-9-9.69-13.87-20.81-9.29"/><path class="cls-1" d="M93.9,52.57a2.2,2.2,0,0,1,0,3.1,2.75,2.75,0,0,1-3.88,0,3.43,3.43,0,0,1,0-4.85,4.29,4.29,0,0,1,6.06,0,5.37,5.37,0,0,1,0,7.58c-2.62,2.61-8.18,3.71-13-2.12-3.15-3.83-4.16-7-9-8.17"/><path class="cls-1" d="M25,9.66a20.39,20.39,0,0,1,16.21-.09c9.22,3.95,13.52,15,13.52,15"/><path class="cls-1" d="M41.35,22.3S8.74,13.52.75,45.83"/><path class="cls-2" d="M79.92,12.76a3.84,3.84,0,0,1,0,5.43,4.8,4.8,0,0,1-6.8,0,6,6,0,0,1,0-8.49,7.51,7.51,0,0,1,10.62,0,9.37,9.37,0,0,1,0,13.27c-4.58,4.59-11.69,4.24-16.59,0C58.52,15.53,52.25,4.43,38.68,1.51S12.36,4.22,11.11,16.75"/><path class="cls-2" d="M94,41.84a2.2,2.2,0,0,0,.86-3,2.75,2.75,0,0,0-3.73-1.07,3.43,3.43,0,0,0-1.34,4.66,4.29,4.29,0,0,0,5.83,1.67,5.36,5.36,0,0,0,2.09-7.28c-1.8-3.23-7.38-6.51-13-1.54-1.74,1.53-14.2,8.36-27.54,1.18-34.67-18.67-42.59,13-42.59,13"/><path class="cls-2" d="M22.42,52.44s8-6.06,16.54-3.85S51,61,51,61"/><path class="cls-3" d="M72.87,32.78a2.18,2.18,0,1,1-2.18-2.19A2.18,2.18,0,0,1,72.87,32.78Z"/><circle class="cls-3" cx="20.32" cy="15.37" r="2.72"/><path class="cls-4" d="M61.65,48a1.79,1.79,0,1,1-1.79-1.79A1.79,1.79,0,0,1,61.65,48Z"/><circle class="cls-4" cx="65.56" cy="12.65" r="1.69"/><path class="cls-4" d="M11.91,40.06a1.69,1.69,0,1,1-1.69-1.69A1.69,1.69,0,0,1,11.91,40.06Z"/></g></g></svg>